<svg xmlns="http://www.w3.org/2000/svg" viewBox="0 0 500 287.11"><g class="cls-1"><g id="레이어_2" data-name="레이어 2"><g id="레이어_1-2" data-name="레이어 1"><rect class="cls-2" width="500" height="286.69"/><path class="cls-3" d="M400,236.36h.65l-4.9-9.67a14.09,14.09,0,0,0-19.07-.63l-5.23,10.3h.95v2.35H360.08v-2.35h1.62l10.16-20v-3H374l3.6-10.53v-.23h.07l1-3h-.39v-2.78h1.13v-.53h-1.69v-3h2.57c1.92-15.3,2.82-41.6,3.12-50h-.07v-.66h.1l0-1.62h-.45v-2.72h1.17v-3.34h1.36v-4.74h.46v-4.34h.52v4.34h.48v4.74h1.33v3.34h1.21V141h-.49l.06,1.62h.07v.66h0c.16,4.74.48,15.2,1.13,26.2l0,.1,0,0c.39,6.66.88,13.45,1.46,19.28.17,1.59.36,3,.49,4.4h2.6v3H393.2v.53h1.1v2.78H394l1,3,3.67,10.76h1.14v2.82l.22-.1,10.33,20.33h1.95v2.35H400ZM375,212.62h0l3.28-2-1.92-1.89Zm1.85-5.4h0l2.92-2-1.65-1.68Zm1.72-5h0l2.14-1.39-1.29-1.13Zm14.81-2.68h-.1L392,200.76l2.17,1.29Zm1.4,4h0l-1.53,1.59,2.63,1.69Zm1.72,5h0l-2.08,2,3.47,2.06ZM386,141h0l-.78.66-.78-.66Zm-1,.89h0l-.91.73.07-1.49Zm-.49.73h0l.65-.56.59.56Zm.91-.76h0l.65-.53v1.12Zm.65,1.49h0l-1,1-1-1.09h2Zm-1.23,1.29h0l-.81.89,0-1.78Zm-.81,1.32h0l1-1.09.94,1.09Zm1.26-1.35h0l.78-.83v1.69Zm.78,2h0l-1,1.06-.94-1.1h2Zm-1.33,1.29h0l-.84.93.06-1.89Zm-.88,1.39h0l1.14-1.13.94,1.16h-2.08Zm1.37-1.39h0L386,147v1.85ZM386,150h0L385,151.05l-1-1.13H386Zm-1.36,1.32h0l-.94.93V152l.06-1.72Zm-.88,1.29h0l1.11-1.06.94,1.06Zm1.33-1.29h0l.91-.86v1.86Zm.91,2.16h0l-1.07,1-1.17-1.2H386l.06,0Zm-1.36,1.19h0l-1.07.93.09-2Zm-1,1.32h0l1.27-1.09,1,1.09Zm1.49-1.32h0l.91-.76v1.65Zm1.53-1.29h0l.1-.14h2.17l-1.1,1.2-1.17-1Zm-3-.14h0v0Zm2.34,3.42h0l-1.23,1-1.07-1.09H386Zm-1.49,1.29h0l-1.07.92.06-2Zm-1.14,1.35h0l1.37-1.12,1.1,1.19h-2.47Zm1.63-1.35h0l.94-.86V159Zm.91,2.08h0l-1.24,1.1-1.1-1.16h2.34Zm-1.5,1.33h0l-1.13,1,.06-2.11Zm-1,1.32h0l1.27-1.09,1.07,1.09Zm1.56-1.32h0l1-.9v1.06l0,.53v.33ZM383.46,160h0l-.1.3,0-.3Zm2.34,3.34h0l-1.17,1.06-1-1.06Zm-1.47,1.33h0l-1.23,1.12.1-2.25Zm-1,1.42h0l1.26-1.19,1.21,1.19Zm1.56-1.46h0l1-.89,0,.56v.86l0,.4Zm.71,2.09h0l-1.14,1-.94-1ZM384.14,168h0l-1.24,1,.17-2.19Zm-1,1.43h0l1.33-1.16,1.07,1.16Zm1.69-1.43h0l1-.93v.44l-.07,1.49Zm.91,2.06h0l-1.24,1.05-1-1.05Zm-1.56,1.32h0l-1.43,1.26.16-2.58Zm-.94,1.39h0l1.23-1.06,1,1.06Zm1.59-1.39h0l.91-.76v.13l0,.17v.86l0,.53Zm.62,2h0l-1.17,1-.91-1Zm-1.5,1.29h0l-1.43,1.23.2-2.52Zm-1,1.43h0l1.3-1.13,1.11,1.13Zm1.66-1.43h0l1-.92,0,.36v.26l-.07,1.26Zm.62,2.06h0l-1.24,1-1-1ZM383.59,178h0l-1.33,1.09.19-2.35Zm-1.07,1.42h0l1.39-1.09,1,1.09ZM384.2,178h0l1.24-1c0,.7-.07,1.46-.13,2.15Zm.88,2.05h0l-1.23,1-1-1Zm-1.56,1.26h0L382,182.58c.06-.8.13-1.66.19-2.49h.13Zm-1.07,1.43h0l1.33-1.13,1,1.13Zm1.69-1.39h0l1.1-.9c0,.66-.06,1.33-.13,2Zm.42,2h0l-1.07.89-.81-.89Zm-1.43,1.19h0l-1.43,1.12c.1-.73.17-1.52.2-2.31h.16Zm-1.23,1.55h0l1.49-1.25,1.2,1.25Zm1.85-1.52h0l1.3-1.06c-.07.73-.1,1.52-.2,2.22Zm.88,2.15h0l-1.43,1.13-1-1.13Zm-1.76,1.39h0l-1.39,1.2h-.1c.06-.83.13-1.69.23-2.55Zm-.74,1.2h0l1-.86.78.86Zm1.39-1.13h0l1.24-1c-.1.69-.17,1.42-.23,2.05Zm.85,1.76h0l-1.6,1.32-1.2-1.32Zm-1.92,1.59h0L381,192.78c.06-.8.19-1.62.26-2.45Zm-1.4,1.65h0l1.66-1.32,1.1,1.19v0l0,.1Zm2-1.62h0l1.26-1c-.13.73-.22,1.43-.35,2Zm3.7-50.67h0l.81.66.75-.66Zm1,.89h0l.78.63,0-1.32Zm.42.73h0l-.62-.56-.61.56Zm-.88-.76h0l-.71-.63v1.29Zm-.71,1.42h0l1.07,1.09.91-1v0Zm1.3,1.36h0l.71.79,0-1.55Zm.75,1.26h0l-.95-1-1,1.09h1.95Zm-1.21-1.29h0l-.84-.9v1.86Zm-.78,2h0l1.08,1.1.87-1.1Zm1.3,1.33h0l.78.79,0-1.65Zm.82,1.26h0l-1-1-.94,1.16h1.95Zm-1.27-1.26h0l-.91-.93V149Zm-.91,2h0l1.17,1.13,1-1.13Zm1.43,1.39h0l.84.8-.06-1.69Zm.84,1.29h0l-1.07-1.06-.91,1.06Zm-1.33-1.29h0l-.94-.92v2Zm.49,3.35h0l1,.86L389,153.7Zm1,1.29h0l-1.24-1.06L386.77,156h2.31Zm-1.5-1.29h0l-.94-.83v1.79Zm-.88,2h0L388,157.7l1.07-1.09Zm1.53,1.33h0l1,.86-.1-1.76Zm1,1.29h0L388,158.17l-1.1,1.19h2.34Zm-1.47-1.29h0l-1.07-.93v2Zm-1,2h0l1.34,1.16,1.13-1.16Zm1.63,1.39h0l1,.93-.1-1.93Zm1,1.32h0l-1.3-1.09L387,162.67Zm-1.56-1.32h0l-1.11-1v1.16l0,.53v.4Zm-.85,2h0l1.11,1.06,1-1.06Zm1.43,1.33h0l1.14,1-.1-2.05Zm1,1.42h0l-1.26-1.19L387,166.05Zm-1.59-1.46h0l-1.1-1,0,.66v.86l0,.5Zm-.71,2.09h0l1.13,1,.95-1Zm1.46,1.29h0l1.1.93-.09-2Zm1,1.43h0l-1.3-1.16-1.14,1.16ZM388,168h0l-1.17-1,.07.5,0,1.59Zm-.91,2.06h0l1.17,1.05,1-1.05Zm1.53,1.32h0l1.33,1.19-.16-2.38Zm.94,1.39h0l-1.2-1.06-1,1.06ZM388,171.35h0l-1-.86v.23l0,.17v.86l0,.63Zm-.62,2h0l1.11,1,1-1Zm1.47,1.29h0l1.33,1.13-.13-2.35Zm1,1.43h0L388.56,175l-1.14,1.13Zm-1.65-1.43h0l-1.14-1,0,.43v.26l0,1.39Zm-.65,2.06h0l1.27,1,.9-1Zm1.62,1.29h0l1.17,1-.16-2.15Zm1,1.42h0l-1.33-1.09-1,1.09ZM388.49,178h0l-1.3-1.09c0,.83.1,1.62.13,2.38Zm-.84,2.05h0l1.23,1,.94-1Zm1.59,1.26h0l1.43,1.16c-.1-.83-.17-1.59-.2-2.42h0Zm1.07,1.43h0l-1.4-1.13-1,1.13Zm-1.72-1.39h0l-1.2-1c0,.73.09,1.46.13,2.16Zm-.39,2h0l1.07.89.81-.89Zm1.43,1.19h0l1.3,1.06c-.07-.76-.17-1.49-.2-2.25h0Zm1.23,1.55h0l-1.56-1.25-1.13,1.25ZM389,184.63h0l-1.4-1.19c0,.86.13,1.69.2,2.48Zm-.85,2.15h0l1.37,1.13,1.07-1.13Zm1.72,1.39h0l1.43,1.2c-.09-.8-.16-1.63-.26-2.42Zm.72,1.2h0l-1-.86-.82.86Zm-1.33-1.13h0l-1.33-1.09a21.78,21.78,0,0,0,.26,2.22Zm-.88,1.76h0l1.59,1.32,1.2-1.32Zm1.95,1.59h0l1.33,1.09c-.06-.73-.19-1.49-.26-2.25Zm1.33,1.65h0L390,191.92l-1.2,1.29,0,0Zm-2-1.62h0l-1.33-1.13c.1.83.23,1.56.36,2.19Zm-10.72,10.93h3.64l-1.53-1.33Zm3.7-3h0l-1.59,1-1.13-1Zm-1.2,1.39h0l2.11-1.39h.3l-.39,3h-.13Zm10.17.13h0l-1.53,1.46h4ZM390,199.57h0l1.63,1,1-1Zm1.24,1.29h0l-2.28-1.29.49,3Zm-14,6.92h5l-2-2Zm5.65-4.6h0l-2.63,1.75-1.72-1.75Zm-2.11,2.25h0l2.53-1.66-.58,3.68Zm11.95.26h0l-2.05,2.09H396ZM390,203.18h0l2.66,1.69,1.66-1.69Zm2.17,2.18h0l-2.66-1.69.55,3.55,0,.26Zm1.66,5.8h0l-2.14,2.15h5.61Zm-3.12-2.75h0l3.09,1.89,1.91-1.89Zm2.53,2.45h0l-2.89-1.79.62,4Zm-18,2.45H381l-2.21-2.15Zm6.6-4.9h0l-3.06,1.89-1.94-1.89Zm-2.54,2.45h0l3.12-1.89-.65,4.28Zm12.86,8.78h0v1l.65.27Zm-.26.92h0v-1.45l-.42-.83v2.12Zm-.71-.23h0v-2.58l-.26-.53h-.16v2.95Zm-.72-.26h0v-2.85h-.39V220Zm-.68-.13h0v-2.72h-.42v2.58Zm-.71-.17h0v-2.55h-.42v2.48Zm-.68-.13h0v-2.42H388v2.35Zm-.69-.1h0v-2.32h-.42v2.29Zm-.68,0h0v-2.29h-.42v2.25Zm-.71,0h0v-2.25h-.42v2.25Zm-.72,0h0v-2.25h-.39v2.25Zm-.68,0h0v-2.25h-.42v2.29Zm-.71.07h0v-2.32h-.43v2.35Zm-.69.07h0v-2.39h-.42v2.42Zm-.68.13h0v-2.52h-.42v2.58Zm-.68.1h0v-2.62h-.42V220Zm-.71.2h0v-2.82h-.3l-.13.23v2.72Zm-.72.19h0V218l-.39.83v1.53Zm21,15.37h0l1.69-2.18-3.64-1.66Zm2.31-2.91h0l1.65-2.09h-6.2Zm2.27-1.46h0l-1.43,1.85,3.09,1.36Zm-2,2.58h0l-2,2.55H409l-.29-.59Zm-5.59-4.2h0l1.88-1.36-3.11-1.13Zm2.63-1.86h0l1.75-1.22h-5Zm2.7-1.09h0L402.13,228l3.18,1.16Zm-2.7,1.89h0l-2,1.42h5.81Zm-3.86-2.65H403l-3.6-1.33Zm-.78-.27h0l1.88-1.32-3.15-1.16Zm2.66-1.89h0l1.85-1.29h-5.39Zm2.63-1h0L400.15,224l3.12,1.16Zm-7.21-.86h6.79l-.62-1.23h-6.79Zm-24.48,13.81h0l-1.73-2.25,3.74-1.66Zm-2.34-3h0l-1.63-2.09h6.21Zm-2.21-1.43h0l1.36,1.82-2.95,1.33Zm2,2.55h0l2,2.55h-6.56l.29-.63Zm5.16-3.21h0l.49-1-1.92-1.39,3.19-1.16-1.27,2.55Zm-2.21-2.85h0L369,226.53h5Zm-2.59-1.06h0L370,228l-3.12,1.16Zm2.59,1.86h0l2,1.42h-5.85Zm3.9-2.65H369.1l3.61-1.33Zm26.05-5.9h-6.79l-1.4-2.78h6.79Zm-25.27,5.67h0l-1.91-1.36,3.24-1.16Zm-2.66-1.93h0l-1.85-1.29h5.36Zm-2.63-1h0l1.85,1.29-3.09,1.13Zm7.27-.89h-6.82l.62-1.23H378Zm.91-1.86h-6.79l1.43-2.78h6.79Zm6-18.61h4.26l1.78,11.92h-7.89l.91-6.09Zm4.13-.63h-4.06l.19-1.19h3.67Zm-8.35,19.7h0v-1.09l-.71,1.39a4.59,4.59,0,0,1,.71-.3Zm14.19,3.25h0l-.35-.69a15.62,15.62,0,0,0-15.53-.3l-.32.66a15.52,15.52,0,0,1,16.2.33Z"/><path class="cls-4" d="M55.27,219.45v8h.43v29.57h74.47V227.49h.8v-9h-1.05v-67h1.49v-1.88h-3v-2.83h-1.05v-.88h-.31l-1.17-2.13-1.24-2.26-1.18,2.26-1.17,2.13H122v.88H104.42v2.83h-3v1.88h1.67V182h-7.3l-1.18-9-.24-2.39v-12.8h2v-1.58h-2V154.6H92.65v1.69h-2v1.58h2v12.49l-.37,2.7-1.17,9H82.87V151.46h1.49v-1.88h-3v-2.83H64.18v-.88h-.31l-1.18-2.13-1.17-2.26-1.24,2.26-1.11,2.13h-.38v.88H57.37v2.83h-3v1.88H56v67h-.74Zm27.6-34.59h8.3v5.28l-.5.81-2.84,4.52h-5V184.86Zm12.88,0h7.3v10.61h-4L96.31,191l-.56-.81ZM84.17,208a8.82,8.82,0,0,1,8.11-8.41A8.88,8.88,0,0,0,84.17,208Zm9.48-8.41a8.62,8.62,0,0,1,4.89,2,8.62,8.62,0,0,0-4.89-2Zm31.81-3.45H107.51V182.29h17.95V196.1ZM119,184.49c.61,0,1.17.37,1.17.81v9.35h-2.35V185.3c0-.44.49-.81,1.18-.81Zm-4.65,0c.62,0,1.18.37,1.18.81v9.35h-2.35V185.3c0-.44.49-.81,1.17-.81Zm7.31,16.19h2.41v-2.45h-2.41Zm-12.69,0h2.47v-2.45H109ZM72,184.49c.62,0,1.18.37,1.18.81v9.35H70.8V185.3c0-.44.5-.81,1.18-.81Zm-4.64,0c.62,0,1.11.37,1.11.81v9.35H66.16V185.3c0-.44.5-.81,1.18-.81Zm7.3,16.19h2.42v-2.45H74.64Zm-12.69,0h2.42v-2.45H62Zm63.7,54.56H124V238.67c0-5.09-7.37-9.23-7.37-9.23s-7.37,4.14-7.37,9.23v16.57h-2.41V227.49h18.82v27.75Zm-23.34,0h-1.92V238.67c0-5.09-7.36-9.23-7.36-9.23s-7.37,4.14-7.37,9.23v16.57H83.55V227.49h18.76v27.75Zm-23.34,0h-2.1V238.67c0-5.09-7.37-9.23-7.37-9.23s-7.36,4.14-7.36,9.23v16.57H60.28V227.49H79v27.75Z"/><g class="cls-5"><polygon class="cls-6" points="472.4 274.49 472.4 162.36 423.54 152.02 428.89 274.49 285.51 274.49 285.51 205.21 282.87 205.21 282.87 163.75 276.06 163.75 276.06 152.65 273.63 152.65 273.63 136.36 260.21 136.36 260.21 124.39 259.02 124.39 259.02 136.36 256.39 136.36 256.39 121.38 255.2 121.38 255.2 136.36 246.72 136.36 246.72 163.75 242.34 163.75 242.34 205.21 238.59 205.21 238.59 274.49 200.46 274.49 200.46 182.27 201.12 182.27 201.12 181.2 196.43 181.2 196.43 174.79 197.03 174.79 197.03 173.77 192.73 173.77 192.73 170.08 193.11 170.08 193.11 169.29 191.26 169.29 191.26 165.81 189.49 165.81 189.21 165.81 189.21 153.39 189.02 153.39 188.78 153.39 188.53 153.39 188.53 165.81 187.7 165.81 187.7 158.89 187.51 158.89 187.27 158.89 187.02 158.89 187.02 165.81 184.98 165.81 184.98 169.29 182.84 169.29 182.84 170.08 183.51 170.08 183.51 173.77 179.2 173.77 179.2 174.79 179.81 174.79 179.81 181.2 175.12 181.2 175.12 182.27 175.77 182.27 175.77 274.49 48.61 274.49 48.61 287.06 499.63 287.06 499.63 274.49 472.4 274.49"/></g><polygon class="cls-7" points="483.53 248.34 480.1 223.13 473.1 223.13 473.1 202.21 473.97 202.21 473.97 200.32 470.57 200.32 470.57 192.17 470.15 192.17 470.15 200.32 467.81 200.32 467.81 193.65 467.39 193.65 467.39 200.32 453.23 200.32 453.23 202.21 454.2 202.21 454.2 244.65 438.03 244.65 438.03 225.64 428.82 225.64 428.82 178.93 429.67 178.93 429.67 176.64 427.83 176.64 427.83 173.7 425.71 173.7 425.71 172.6 425.71 169.25 425.71 166.34 423.16 166.34 423.16 161.14 422.85 161.14 422.54 161.14 422.54 166.34 421.17 166.34 420.33 169.25 414.76 169.25 414.76 173.7 400.18 173.7 400.18 176.64 398.34 176.64 398.34 178.93 399.18 178.93 399.18 209.32 386.98 209.32 386.98 239.19 373.44 232.58 373.44 203.6 375.63 203.6 375.63 201.47 371.78 201.47 371.78 195.69 355.33 195.69 355.33 201.47 349.95 201.47 349.95 195.69 347.19 195.69 347.19 201.47 344.42 201.47 344.42 195.69 341.38 195.69 341.38 201.47 335.03 201.47 335.03 203.6 336 203.6 336 243.77 329.82 243.77 329.82 243.35 328.71 243.35 328.71 231.9 329.82 231.9 329.82 230.98 328.71 230.98 328.71 219.53 329.82 219.53 329.82 218.62 328.71 218.62 328.71 207.17 329.82 207.17 329.82 206.25 328.71 206.25 328.71 194.8 329.82 194.8 329.82 193.88 328.71 193.88 328.71 182.43 329.82 182.43 329.82 181.51 328.71 181.51 328.71 169.67 330.62 169.67 330.62 168.75 331.59 168.75 331.59 166.23 313.42 166.23 313.42 163.44 314.01 163.44 314.01 162.63 304.11 162.63 304.11 163.44 304.7 163.44 304.7 166.23 300.2 166.23 300.2 168.75 301.17 168.75 301.17 169.67 303.08 169.67 303.08 181.51 301.97 181.51 301.97 182.43 303.08 182.43 303.08 193.88 301.97 193.88 301.97 194.8 303.08 194.8 303.08 206.25 301.97 206.25 301.97 207.17 303.08 207.17 303.08 218.62 301.97 218.62 301.97 219.53 303.08 219.53 303.08 230.98 301.97 230.98 301.97 231.9 303.08 231.9 303.08 243.35 301.97 243.35 301.97 244.27 303.08 244.27 303.08 253.62 296.88 253.62 296.88 217.47 271.92 217.47 271.92 243.77 267.86 243.77 267.86 161.84 264.87 161.84 264.87 163.95 259.33 165.44 259.33 164.07 256.33 164.07 256.33 166.25 250.8 167.74 250.8 166.17 247.8 166.17 247.8 168.55 242.27 170.04 242.27 168.74 239.27 168.74 239.27 170.84 233.74 172.34 233.74 171.22 230.74 171.22 230.74 251.67 226.52 251.67 226.52 208.78 210.89 208.78 210.89 235.16 194.87 235.16 194.87 212.66 192.9 212.66 192.9 205.28 194.07 205.28 194.07 204.53 188.89 204.53 188.89 202.21 188.33 202.21 188.33 204.53 186.68 204.53 186.68 192.61 186.26 192.61 186.26 204.53 184.1 204.53 184.1 205.28 185.37 205.28 185.37 212.66 174.8 212.66 174.8 229.82 164.51 229.82 159.13 251.67 148.35 251.67 148.35 180.33 134.07 180.33 134.07 177.77 134.88 177.77 134.88 176.88 124.06 176.88 124.06 177.77 124.91 177.77 124.91 180.33 124.91 184.44 124.91 233.3 118.18 233.3 118.18 214.84 120.57 214.84 120.57 213.17 103.63 213.17 103.63 202.02 100.4 202.02 100.4 199.72 93.18 199.72 93.18 202.02 87.31 202.02 87.31 241.84 68.06 241.84 68.06 212.3 51.84 212.3 51.84 235.63 37.77 235.63 37.77 250.56 27.62 250.56 27.62 231.79 14.28 231.79 14.28 247.79 2.2 247.79 2.2 259.12 14.28 259.12 18.36 259.12 25.03 259.12 27.62 259.12 37.77 259.12 51.84 259.12 56.57 259.12 59.1 259.12 68.06 259.12 87.31 259.12 93.18 259.12 100.4 259.12 103.63 259.12 116.27 259.12 118.18 259.12 124.91 259.12 136.2 259.12 141.77 259.12 148.35 259.12 174.8 259.12 180.91 259.12 191.22 259.12 194.87 259.12 211.16 259.12 215.54 259.12 230.74 259.12 232.24 259.12 233.74 259.12 239.27 259.12 242.27 259.12 247.8 259.12 250.31 259.12 250.8 259.12 256.33 259.12 259.33 259.12 264.09 259.12 264.87 259.12 266.36 259.12 267.86 259.12 271.92 259.12 292.55 259.12 295.5 259.12 296.88 259.12 303.08 259.12 314.01 259.12 324.01 259.12 328.71 259.12 336 259.12 354.1 259.12 373.24 259.12 373.44 259.12 386.98 259.12 394.55 259.12 399.18 259.12 402.11 259.12 424.77 259.12 428.82 259.12 433.68 259.12 438.03 259.12 454.2 259.12 466.22 259.12 468.68 259.12 473.1 259.12 500 259.12 500 248.34 483.53 248.34"/><path class="cls-8" d="M89.8,211a2.48,2.48,0,0,0,2.87,1.9,3.18,3.18,0,0,0,.33-.09c.24,1,.52,2,.83,2.92l-.33.08a2.31,2.31,0,0,0-1.48,3,2.53,2.53,0,0,0,3.18,1.4l.31-.14c.42.93.87,1.84,1.36,2.73l-.32.14a2.28,2.28,0,0,0-.91,3.2A2.56,2.56,0,0,0,99,227a1.15,1.15,0,0,0,.29-.2c.59.85,1.2,1.68,1.85,2.48a2,2,0,0,0-.31.2,2.25,2.25,0,0,0-.3,3.29,2.58,2.58,0,0,0,3.49.29,2.06,2.06,0,0,0,.26-.25c.73.74,1.49,1.45,2.27,2.14a2.91,2.91,0,0,0-.27.24,2.25,2.25,0,0,0,.31,3.3,2.58,2.58,0,0,0,3.49-.29,1.94,1.94,0,0,0,.21-.29c.85.61,1.73,1.19,2.62,1.74l-.21.28a2.27,2.27,0,0,0,.91,3.19,2.56,2.56,0,0,0,3.39-.85,2,2,0,0,0,.14-.3c.71.33,1.42.65,2.14,1l-4.47,9.71a.38.38,0,0,0,0,.4.46.46,0,0,0,.38.19h7.26a.46.46,0,0,0,.43-.3l2.48-7.89c.78.21,1.56.4,2.35.57,0,.11-.07.21-.09.32a2.34,2.34,0,0,0,2,2.7,2.46,2.46,0,0,0,2.87-1.89,1.84,1.84,0,0,0,0-.33c1,.12,2.12.21,3.19.26,0,.11,0,.22,0,.33a2.48,2.48,0,0,0,5,0c0-.11,0-.22,0-.33,1.07,0,2.14-.14,3.19-.26a1.84,1.84,0,0,0,0,.33,2.46,2.46,0,0,0,2.87,1.89,2.34,2.34,0,0,0,2-2.7,1.92,1.92,0,0,0-.09-.32c.79-.17,1.57-.36,2.35-.57l2.48,7.89a.46.46,0,0,0,.43.3h7.27a.44.44,0,0,0,.37-.19.41.41,0,0,0,0-.4l-4.48-9.71c.72-.31,1.44-.63,2.14-1a2,2,0,0,0,.14.3,2.56,2.56,0,0,0,3.39.85,2.26,2.26,0,0,0,.91-3.19,2.92,2.92,0,0,0-.21-.28c.89-.55,1.77-1.13,2.62-1.74a1.94,1.94,0,0,0,.21.29,2.58,2.58,0,0,0,3.49.29,2.25,2.25,0,0,0,.31-3.3,1.55,1.55,0,0,0-.27-.24c.78-.69,1.54-1.4,2.27-2.14a2.06,2.06,0,0,0,.26.25,2.58,2.58,0,0,0,3.49-.29,2.24,2.24,0,0,0-.3-3.29,2.61,2.61,0,0,0-.3-.2c.64-.8,1.25-1.63,1.84-2.48a1.37,1.37,0,0,0,.29.2,2.56,2.56,0,0,0,3.39-.85,2.28,2.28,0,0,0-.91-3.2l-.32-.14c.49-.89.94-1.8,1.36-2.73a2.37,2.37,0,0,0,.32.14,2.52,2.52,0,0,0,3.17-1.4,2.31,2.31,0,0,0-1.48-3l-.33-.08c.31-1,.59-1.93.83-2.92a3.18,3.18,0,0,0,.33.09,2.48,2.48,0,0,0,2.87-1.9,2.36,2.36,0,0,0-2-2.71,2.06,2.06,0,0,0-.35,0c.13-1,.23-2,.28-3a2.09,2.09,0,0,0,.35,0,2.34,2.34,0,1,0,0-4.68,2.07,2.07,0,0,0-.35,0c-.05-1-.15-2-.28-3l.35,0a2.35,2.35,0,0,0,2-2.71,2.46,2.46,0,0,0-2.87-1.89l-.33.08c-.24-1-.52-2-.83-2.92a2,2,0,0,0,.33-.08,2.3,2.3,0,0,0,1.48-3,2.51,2.51,0,0,0-3.17-1.39,1.15,1.15,0,0,0-.32.14c-.42-.93-.87-1.85-1.36-2.74a1.83,1.83,0,0,0,.32-.14,2.27,2.27,0,0,0,.91-3.19,2.56,2.56,0,0,0-3.39-.86l-.29.2c-.59-.85-1.2-1.67-1.84-2.48l.3-.19a2.25,2.25,0,0,0,.3-3.3,2.58,2.58,0,0,0-3.49-.28,2,2,0,0,0-.26.24c-.73-.73-1.49-1.45-2.27-2.13a3.2,3.2,0,0,0,.27-.25,2.24,2.24,0,0,0-.31-3.29,2.59,2.59,0,0,0-3.49.28,2.64,2.64,0,0,0-.21.29c-.85-.61-1.73-1.19-2.62-1.74l.21-.28a2.26,2.26,0,0,0-.91-3.19,2.56,2.56,0,0,0-3.39.86,1.64,1.64,0,0,0-.14.3c-.95-.46-1.92-.89-2.91-1.28a2.1,2.1,0,0,0,.15-.3,2.3,2.3,0,0,0-1.48-3,2.53,2.53,0,0,0-3.18,1.4,1.77,1.77,0,0,0-.08.31c-1-.29-2-.55-3.1-.78a1.58,1.58,0,0,0,.09-.31,2.35,2.35,0,0,0-2-2.71,2.47,2.47,0,0,0-2.87,1.9,1.73,1.73,0,0,0,0,.32c-1.05-.12-2.12-.21-3.19-.26,0-.11,0-.22,0-.33a2.48,2.48,0,0,0-5,0c0,.11,0,.22,0,.33-1.07.05-2.13.14-3.19.26a1.73,1.73,0,0,0,0-.32,2.46,2.46,0,0,0-2.87-1.9,2.35,2.35,0,0,0-2,2.71,2.8,2.8,0,0,0,.09.31c-1,.23-2.08.49-3.09.78,0-.1-.05-.21-.09-.31a2.53,2.53,0,0,0-3.18-1.4,2.3,2.3,0,0,0-1.48,3,2.1,2.1,0,0,0,.15.3c-1,.39-2,.82-2.9,1.28a2.8,2.8,0,0,0-.15-.3,2.56,2.56,0,0,0-3.39-.86,2.27,2.27,0,0,0-.91,3.19,3,3,0,0,0,.22.28c-.9.55-1.78,1.13-2.63,1.74a2.64,2.64,0,0,0-.21-.29,2.59,2.59,0,0,0-3.49-.28,2.24,2.24,0,0,0-.31,3.29l.27.25c-.78.68-1.54,1.4-2.27,2.13a2,2,0,0,0-.26-.24,2.58,2.58,0,0,0-3.49.28,2.26,2.26,0,0,0,.3,3.3l.31.19c-.65.81-1.26,1.63-1.85,2.48a2.11,2.11,0,0,0-.29-.2,2.56,2.56,0,0,0-3.39.86,2.27,2.27,0,0,0,.91,3.19,1.83,1.83,0,0,0,.32.14c-.48.89-.94,1.81-1.36,2.74a1.73,1.73,0,0,0-.31-.14A2.52,2.52,0,0,0,92,187.05a2.3,2.3,0,0,0,1.48,3,2,2,0,0,0,.33.08c-.31,1-.59,1.93-.83,2.92l-.33-.08a2.46,2.46,0,0,0-2.87,1.89,2.35,2.35,0,0,0,2,2.71l.35,0c-.13,1-.23,2-.28,3a2.07,2.07,0,0,0-.35,0,2.34,2.34,0,1,0,0,4.68,2.09,2.09,0,0,0,.35,0c.05,1,.15,2,.28,3a2.06,2.06,0,0,0-.35,0A2.36,2.36,0,0,0,89.8,211Zm19.53,25.09,1.18-1.33a44.38,44.38,0,0,0,5.5,3.64l-.92,1.5A44.86,44.86,0,0,1,109.33,236.06Zm1.76-2,24.19-27.2-18.82,30.75A43.77,43.77,0,0,1,111.09,234.09Zm19.68,11.18.32-1.71a46.09,46.09,0,0,0,6.69.55v1.73A47.58,47.58,0,0,1,130.77,245.27Zm7.91.57v-1.73a46,46,0,0,0,6.69-.55l.32,1.71A47.47,47.47,0,0,1,138.68,245.84Zm22.69-6-.92-1.5a43.64,43.64,0,0,0,5.5-3.64l1.18,1.33A44.86,44.86,0,0,1,161.37,239.87ZM160,237.64l-18.82-30.75,24.2,27.2A44.66,44.66,0,0,1,160,237.64Zm-67.28-34.3h1.83a39.68,39.68,0,0,0,.59,6.31l-1.81.31A40.24,40.24,0,0,1,92.72,203.34Zm3.45-7.85a37.92,37.92,0,0,1,1.71-6l35.38,12.15Zm36.94,7H95.45a38,38,0,0,1,.57-6.16ZM98.18,188.72a40.09,40.09,0,0,1,2.78-5.61l32.61,17.76ZM124,164.86a43,43,0,0,1,6.34-1.61l6.54,35Zm12,33.66-18.83-30.75a44,44,0,0,1,6-2.62Zm-4.82-35.41a44,44,0,0,1,6.54-.54v35.52Zm7.44-.54a44,44,0,0,1,6.54.54l-6.54,35Zm7.42.68a43,43,0,0,1,6.34,1.61l-12.88,33.37Zm7.18,1.9a43.44,43.44,0,0,1,5.95,2.62L140.4,198.52Zm25.31,24.36a39,39,0,0,1,1.7,6l-37.09,6.17Zm-35.7,11.36,32.61-17.76a40.09,40.09,0,0,1,2.78,5.61Zm37.55-4.54a38,38,0,0,1,.57,6.16H143.35Zm.57,7a38.05,38.05,0,0,1-.57,6.17l-37.08-6.17Zm-.72,7a39,39,0,0,1-1.7,6L143.2,204.17Zm-2,6.77a39.55,39.55,0,0,1-2.78,5.61L142.89,205Zm-80.4-.79a37.92,37.92,0,0,1-1.71-6l37.09-6.17ZM133.57,205,101,222.72a39.55,39.55,0,0,1-2.78-5.61ZM96,209.51a38.05,38.05,0,0,1-.57-6.17h37.66Zm-3.3-7a40,40,0,0,1,.61-6.61l1.81.3a39.91,39.91,0,0,0-.59,6.31Zm.76-7.44a40.7,40.7,0,0,1,1.82-6.42l1.73.59a39.8,39.8,0,0,0-1.74,6.13Zm2.13-7.21a40.64,40.64,0,0,1,3-6l1.59.87a40.35,40.35,0,0,0-2.85,5.74Zm3.44-6.75a42.72,42.72,0,0,1,4-5.43l1.41,1.11a42.32,42.32,0,0,0-3.86,5.19Zm6.13-3.77L134,200.14l-32.61-17.76A42.33,42.33,0,0,1,105.18,177.32Zm.58-.65a42.76,42.76,0,0,1,4.64-4.38l24.19,27.2Zm5.33-4.92a42.71,42.71,0,0,1,5.37-3.56l18.82,30.75Zm-.58-.65-1.18-1.33a45.94,45.94,0,0,1,5.76-3.81l.92,1.5A44.38,44.38,0,0,0,110.51,171.1Zm5.36-5.56a46.66,46.66,0,0,1,6.37-2.82l.63,1.63a44.84,44.84,0,0,0-6.09,2.69Zm7.21-3.11a48,48,0,0,1,6.8-1.72l.32,1.71a45.33,45.33,0,0,0-6.49,1.64Zm14.7-2.44v1.73a47.54,47.54,0,0,0-6.69.55l-.32-1.71A49,49,0,0,1,137.78,160Zm.9,0a48.87,48.87,0,0,1,7,.57l-.32,1.71a47.41,47.41,0,0,0-6.69-.55Zm7.9.72a48,48,0,0,1,6.8,1.72l-.63,1.63a45.33,45.33,0,0,0-6.49-1.64Zm7.64,2a47.33,47.33,0,0,1,6.38,2.82l-.92,1.5a44.3,44.3,0,0,0-6.09-2.69Zm12.91,7.05L166,171.1a43.64,43.64,0,0,0-5.5-3.64l.92-1.5A45.94,45.94,0,0,1,167.13,169.77Zm-1.75,2-24.2,27.19L160,168.19A43.57,43.57,0,0,1,165.38,171.75Zm.68.54a42.76,42.76,0,0,1,4.64,4.38l-28.83,22.82Zm5.22,5a40.28,40.28,0,0,1,3.77,5.06l-32.61,17.76Zm.68-.55,1.41-1.11a43.77,43.77,0,0,1,4,5.43l-1.6.87A40.36,40.36,0,0,0,172,176.77Zm5.91,5a41.59,41.59,0,0,1,3,6l-1.73.59a39.31,39.31,0,0,0-2.85-5.74Zm3.29,6.81a40.7,40.7,0,0,1,1.82,6.42l-1.81.3a38.71,38.71,0,0,0-1.74-6.13Zm2.59,13.86h-1.84a39.9,39.9,0,0,0-.58-6.31l1.81-.3A42.3,42.3,0,0,1,183.75,202.49Zm0,.85a42.54,42.54,0,0,1-.61,6.62l-1.81-.31a39.69,39.69,0,0,0,.58-6.31Zm-.77,7.45a40.89,40.89,0,0,1-1.82,6.41l-1.73-.59a38.59,38.59,0,0,0,1.74-6.12ZM180.85,218a42,42,0,0,1-3,6l-1.6-.87a39.31,39.31,0,0,0,2.85-5.74Zm-3.43,6.74a44.63,44.63,0,0,1-4,5.44L172,229.06a40.26,40.26,0,0,0,3.86-5.18Zm-6.14,3.78L142.44,205.7l32.61,17.75A40.38,40.38,0,0,1,171.28,228.52Zm-.58.64a41.8,41.8,0,0,1-4.64,4.38l-24.19-27.19Zm-11.47,8.9c-1.15.61-2.32,1.18-3.53,1.69l-13.89-30.14ZM150,241.72c-1.28.34-2.58.63-3.9.86L140,210.07Zm-4.78,1a45.43,45.43,0,0,1-6.54.53V207.75Zm-14,0,6.54-35v35.51A45.43,45.43,0,0,1,131.24,242.73Zm-.88-.15c-1.32-.23-2.62-.52-3.9-.86l10-31.65Zm-9.6-2.83c-1.21-.51-2.38-1.08-3.53-1.69l17.42-28.45Zm-10.36-6.21a41.8,41.8,0,0,1-4.64-4.38l28.84-22.81Zm-5.22-5a42.44,42.44,0,0,1-3.77-5.07L134,205.7Zm-.68.54-1.41,1.12a43.54,43.54,0,0,1-4-5.44l1.59-.86A42.21,42.21,0,0,0,104.5,229.06ZM98.6,224a41,41,0,0,1-3-6l1.73-.6a40.35,40.35,0,0,0,2.85,5.74Zm-3.3-6.81a40.89,40.89,0,0,1-1.82-6.41l1.81-.3A39.68,39.68,0,0,0,97,216.61Zm13.34-46.88,1.18,1.33a41,41,0,0,0-4.74,4.48L103.67,175A45,45,0,0,1,108.64,170.32ZM172.79,175l-1.4,1.12a42,42,0,0,0-4.75-4.48l1.18-1.33A44.16,44.16,0,0,1,172.79,175Zm-5,60.51-1.18-1.33a43.82,43.82,0,0,0,4.75-4.48l1.4,1.11A45.17,45.17,0,0,1,167.82,235.52Zm-11,6.59-.73-1.59c1.24-.52,2.44-1.1,3.62-1.72l.92,1.5C159.36,241,158.1,241.56,156.79,242.11Zm-6,2.08c-1.37.37-2.78.68-4.2.93l-.32-1.7c1.35-.24,2.69-.54,4-.89Zm-25.1,0,.52-1.66c1.31.35,2.65.65,4,.89l-.32,1.7Q127.75,244.75,125.68,244.19Zm-6-2.08c-1.3-.55-2.57-1.15-3.8-1.81l.91-1.5c1.18.62,2.38,1.2,3.62,1.72Zm-16-11.29,1.4-1.11a43.82,43.82,0,0,0,4.75,4.48l-1.18,1.33A46.09,46.09,0,0,1,103.67,230.82Z"/><path class="cls-8" d="M60.12,161.09l-3.34,3.58-2.34-2.91a.76.76,0,0,0-1-.15.54.54,0,0,0-.17.82L56.17,166a.7.7,0,0,0,.54.26h0a.72.72,0,0,0,.53-.22l3.93-4.2a.54.54,0,0,0-.11-.84A.78.78,0,0,0,60.12,161.09Z"/><path class="cls-8" d="M67.67,156.93h-.92v-5.8h.42a.63.63,0,0,0,.58-.34.49.49,0,0,0-.15-.6,19.41,19.41,0,0,1-1.48-1.36.61.61,0,0,0,0-.13v-4.44a.64.64,0,0,0-1.26,0v3.26a16.06,16.06,0,0,1-3.15-5v-4.46h.11a.59.59,0,0,0,.63-.54v-1.18a.59.59,0,0,0-.63-.54h-.39a24,24,0,0,1-4-11.48h.12a.6.6,0,0,0,.63-.55.59.59,0,0,0-.63-.54h-.17v-3.64a.64.64,0,0,0-1.26,0v3.64h-.18a.59.59,0,0,0-.63.54.6.6,0,0,0,.63.55h.13a24.19,24.19,0,0,1-4,11.48h-.39a.6.6,0,0,0-.64.54v1.18a.6.6,0,0,0,.64.54h.1v4.46a16.22,16.22,0,0,1-3.14,5v-3.26a.64.64,0,0,0-1.27,0v4.44a.61.61,0,0,0,0,.13,19.41,19.41,0,0,1-1.48,1.36.51.51,0,0,0-.15.6.66.66,0,0,0,.59.34h.42v5.8H45.8a.59.59,0,0,0-.63.54v18.81a.59.59,0,0,0,.63.54h.93v63.24a.59.59,0,0,0,.63.54H66.11a.6.6,0,0,0,.64-.54V176.82h.92a.59.59,0,0,0,.63-.54V157.47A.59.59,0,0,0,67.67,156.93ZM48.52,175.81h-.88v-.5a.44.44,0,0,1,.88,0Zm13.93-23.14a.83.83,0,0,1,1.64,0v3.42H62.45Zm1.21,8.25v2.22a7.71,7.71,0,0,0-2.57-2.22Zm-6.92,11.91c-3.82,0-6.93-2.67-6.93-6s3.11-6,6.93-6,6.92,2.67,6.92,6S60.55,172.83,56.74,172.83Zm.43,2.48v.5H56.3v-.5a.42.42,0,0,1,.44-.38A.41.41,0,0,1,57.17,175.31Zm-1.26-19.22v-3.42a.84.84,0,0,1,1.65,0v3.42Zm4.92,0H59.18v-3.42a.84.84,0,0,1,1.65,0Zm-1.07-8.73a.45.45,0,0,1,.88,0v1h-.88Zm-1-8.31a.41.41,0,0,1,.44-.37.4.4,0,0,1,.43.37v2.32h-.87Zm-.7,6.23a.41.41,0,0,1,.44-.37.4.4,0,0,1,.43.37v1H58Zm-.92-6.23a.41.41,0,0,1,.44-.37.4.4,0,0,1,.43.37v2.32h-.87ZM56.74,147a.4.4,0,0,1,.43.37v1H56.3v-1A.41.41,0,0,1,56.74,147Zm-1.25-7.94a.41.41,0,0,1,.44-.37.4.4,0,0,1,.43.37v2.32h-.87Zm-.05,6.23v1h-.87v-1a.44.44,0,0,1,.87,0Zm-1.57-6.23a.44.44,0,0,1,.87,0v2.32h-.87Zm-1,8.31a.44.44,0,0,1,.87,0v1h-.87Zm-.19,5.31a.83.83,0,0,1,1.64,0v3.42H52.65Zm-.26,8.25a7.85,7.85,0,0,0-2.58,2.22v-2.22Zm-3-8.25a.84.84,0,0,1,1.65,0v3.42H49.38Zm0,22.64a.44.44,0,0,1,.88,0v.5h-.88Zm2,61.19a.64.64,0,0,1-1.26,0v-5.09a.64.64,0,0,1,1.26,0Zm0-8.12a.64.64,0,0,1-1.26,0v-1.84a.64.64,0,0,1,1.26,0Zm0-4.87a.64.64,0,0,1-1.26,0v-9.33a.64.64,0,0,1,1.26,0Zm0-12.36a.64.64,0,0,1-1.26,0v-1.84a.64.64,0,0,1,1.26,0Zm0-4.88a.64.64,0,0,1-1.26,0V197a.64.64,0,0,1,1.26,0Zm0-12.36a.64.64,0,0,1-1.26,0v-1.83a.64.64,0,0,1,1.26,0Zm0-4.87a.64.64,0,0,1-1.26,0v-9.32a.64.64,0,0,1,1.26,0ZM52,175.81h-.87v-.5a.41.41,0,0,1,.43-.38.42.42,0,0,1,.44.38Zm-2.17-3v-2.22a7.73,7.73,0,0,0,2.58,2.22Zm3,2.48a.44.44,0,0,1,.87,0v.5h-.87Zm1.52,61.19a.64.64,0,0,1-1.27,0v-5.09a.64.64,0,0,1,1.27,0Zm0-8.12a.64.64,0,0,1-1.27,0v-1.84a.64.64,0,0,1,1.27,0Zm0-4.87a.64.64,0,0,1-1.27,0v-9.33a.64.64,0,0,1,1.27,0Zm0-12.36a.64.64,0,0,1-1.27,0v-1.84a.64.64,0,0,1,1.27,0Zm0-4.88a.64.64,0,0,1-1.27,0V197a.64.64,0,0,1,1.27,0Zm0-12.36a.64.64,0,0,1-1.27,0v-1.83a.64.64,0,0,1,1.27,0Zm0-4.87a.64.64,0,0,1-1.27,0v-9.32a.64.64,0,0,1,1.27,0Zm1.08-13.23h-.87v-.5a.44.44,0,0,1,.87,0Zm1.93,60.69a.64.64,0,0,1-1.26,0v-5.09a.64.64,0,0,1,1.26,0Zm0-8.12a.64.64,0,0,1-1.26,0v-1.84a.64.64,0,0,1,1.26,0Zm0-4.87a.64.64,0,0,1-1.26,0v-9.33a.64.64,0,0,1,1.26,0Zm0-12.36a.64.64,0,0,1-1.26,0v-1.84a.64.64,0,0,1,1.26,0Zm0-4.88a.64.64,0,0,1-1.26,0V197a.64.64,0,0,1,1.26,0Zm0-12.36a.64.64,0,0,1-1.26,0v-1.83a.64.64,0,0,1,1.26,0Zm0-4.87a.64.64,0,0,1-1.26,0v-9.32a.64.64,0,0,1,1.26,0Zm1.53-13.23H58v-.5a.42.42,0,0,1,.44-.38.41.41,0,0,1,.43.38Zm1.48,60.69a.64.64,0,0,1-1.26,0v-5.09a.64.64,0,0,1,1.26,0Zm0-8.12a.64.64,0,0,1-1.26,0v-1.84a.64.64,0,0,1,1.26,0Zm0-4.87a.64.64,0,0,1-1.26,0v-9.33a.64.64,0,0,1,1.26,0Zm0-12.36a.64.64,0,0,1-1.26,0v-1.84a.64.64,0,0,1,1.26,0Zm0-4.88a.64.64,0,0,1-1.26,0V197a.64.64,0,0,1,1.26,0Zm0-12.36a.64.64,0,0,1-1.26,0v-1.83a.64.64,0,0,1,1.26,0Zm0-4.87a.64.64,0,0,1-1.26,0v-9.32a.64.64,0,0,1,1.26,0Zm.26-13.23h-.88v-.5a.44.44,0,0,1,.88,0Zm3-5.2v2.22H61.09A7.6,7.6,0,0,0,63.66,170.61Zm-2.16,4.7a.41.41,0,0,1,.43-.38.42.42,0,0,1,.44.38v.5H61.5Zm1.89,61.19a.64.64,0,0,1-1.26,0v-5.09a.64.64,0,0,1,1.26,0Zm0-8.12a.64.64,0,0,1-1.26,0v-1.84a.64.64,0,0,1,1.26,0Zm0-4.87a.64.64,0,0,1-1.26,0v-9.33a.64.64,0,0,1,1.26,0Zm0-12.36a.64.64,0,0,1-1.26,0v-1.84a.64.64,0,0,1,1.26,0Zm0-4.88a.64.64,0,0,1-1.26,0V197a.64.64,0,0,1,1.26,0Zm0-12.36a.64.64,0,0,1-1.26,0v-1.83a.64.64,0,0,1,1.26,0Zm0-4.87a.64.64,0,0,1-1.26,0v-9.32a.64.64,0,0,1,1.26,0Zm.71-13.23h-.87v-.5a.41.41,0,0,1,.43-.38.42.42,0,0,1,.44.38Zm1.73,0H65v-.5a.44.44,0,0,1,.87,0Z"/><path class="cls-8" d="M433.54,168.86a19.55,19.55,0,0,0-4.32-1.16h-1l.2-.86h.66a.53.53,0,0,0,.52-.37.45.45,0,0,0-.32-.51l-9.84-3.38a.15.15,0,0,1-.11-.14.15.15,0,0,1,.09-.14l2-.94a.44.44,0,0,0,.26-.46.48.48,0,0,0-.4-.38l-1.53-.3-.44-.86a.53.53,0,0,0-.48-.27h-2.61l-.24-.83a.53.53,0,0,0-.51-.35h-.5v-7.18a.54.54,0,0,0-1.06,0v7.18h-.5a.53.53,0,0,0-.51.35l-.24.83H410a.56.56,0,0,0-.48.27l-.44.86-1.53.3a.48.48,0,0,0-.4.38.45.45,0,0,0,.27.46l2,.94a.17.17,0,0,1,.09.14.16.16,0,0,1-.11.14L399.55,166a.46.46,0,0,0-.33.51.53.53,0,0,0,.52.37h.67l.2.86h-1a19.55,19.55,0,0,0-4.32,1.16.47.47,0,0,0-.32.42.49.49,0,0,0,.35.42,19.55,19.55,0,0,0,4.06.82l.73,1.63-1.66.59a.44.44,0,0,0,0,.85,29.66,29.66,0,0,0,7.62,1.2c.65,3.32,5.4,27.88,5.4,30.57v14.41c0,4.5-9,47.77-9.11,48.21a.46.46,0,0,0,.43.52h.09a.52.52,0,0,0,.52-.37c.15-.71,1.62-7.78,3.34-16.32h4.73v16.24a.5.5,0,0,0,.53.45h4.8a.5.5,0,0,0,.53-.45V251.82h4.73c1.72,8.54,3.19,15.61,3.34,16.32a.52.52,0,0,0,.52.37H426a.46.46,0,0,0,.43-.52c-.09-.44-9.11-43.71-9.11-48.21V205.36c0-2.69,4.76-27.25,5.4-30.57a29.56,29.56,0,0,0,7.62-1.2.45.45,0,0,0,.34-.42.46.46,0,0,0-.32-.43l-1.65-.59.72-1.63a19.55,19.55,0,0,0,4.06-.82.47.47,0,0,0,.35-.42A.45.45,0,0,0,433.54,168.86Zm-22.06,82.06h-4.54c1.62-8.1,3.43-17.34,4.54-23.72Zm-1.69-79.68a.49.49,0,0,1,1,0v.41h-1Zm-1.38-4.33a.49.49,0,0,1,1,0v.42h-1Zm-4.55.42h-1v-.42a.45.45,0,0,1,.49-.41.44.44,0,0,1,.48.41Zm1.38,4.32h-1v-.41a.46.46,0,0,1,.49-.42.45.45,0,0,1,.48.42Zm1.38-4.32h-1v-.42a.49.49,0,0,1,1,0Zm.41,3.91a.49.49,0,0,1,1,0v.41h-1Zm4.45,26.83c-1.41-8.2-3.79-20.51-4.33-23.28h4.33Zm.66-30.74h-1v-.42a.49.49,0,0,1,1,0Zm1.38,4.32h-1v-.41a.45.45,0,0,1,.48-.42.46.46,0,0,1,.49.42Zm1.38-4.32h-1v-.42a.44.44,0,0,1,.48-.41.45.45,0,0,1,.49.41Zm4.54-.42a.49.49,0,0,1,1,0v.42h-1Zm-1.38,4.33a.46.46,0,0,1,.49-.42.45.45,0,0,1,.48.42v.41h-1Zm-1.79.41h-1v-.41a.48.48,0,0,1,1,0Zm5.62,79.27h-4.55v-5.15h3.52C421.2,247.51,421.55,249.24,421.89,250.92Zm-1.21-6.06h-3.34v-5.14h2.33C420,241.42,420.34,243.14,420.68,244.86Zm-1.19-6.05h-2.15V227.2C417.91,230.5,418.67,234.55,419.49,238.81Zm-2.81-71.48v-.42a.45.45,0,0,1,.49-.41.44.44,0,0,1,.48.41v.42Zm.66,30.74V174.79h4.33C421.13,177.56,418.75,189.87,417.34,198.07Zm4.45-26.42h-1v-.41a.49.49,0,0,1,1,0Zm1.38-4.32h-1v-.42a.49.49,0,0,1,1,0Zm1.38,4.32h-1v-.41a.49.49,0,0,1,1,0Zm1.38-4.32h-1v-.42a.49.49,0,0,1,1,0Z"/><path class="cls-8" d="M500,214.45H486.08v7.05h-5.5v10.7h-5.34V218H471V206.09h-13.4v34.76h-6.52V214.21h-2.47V198.45H437.58V221.5h-3V207.65H423.33v44.69h-9.7v-5.66H402.77V215.26H391.51v6.24h-3V198.45H377.45v15.76H375v26.64h-6.53V206.09h-13.4V218h-4.2V232.2h-5.33V221.5H340v-7.05H327.76v24.66h-6.07v-12h-8.24V202.39H299.22V248h-7.05V221.15H280.49v3.57H278v7.7h-4.17v-5H257.91v9.65h-3V218.79H239v9.65h-5.77v23.34H227.6V209.5h-3v-7.22l-5.34-4.59h-7.79v21.1h-6.08v13.87h-9.88v-3.72H193v14.21h-3.22v9.19h-3.26V242.06h-3v-6.34h-2.86v1.86h-1.85v4H170.3v9.79H154.9v1H144.63V248H132.56v4.32H115.27v-5.28h-7v-15.2H91.6v8.08h-3v-3.65H80.71V219.41H77.65V215.9H65.58v3.51H59.47v20.07H54.64v-5.83H48.3V217.81h-7v-15.2H24.62v8.08H20.4V217H13.73V190.16H0v97H500V214.45Zm-496.07,4H2.33v-2.33h1.6Zm0-4.49H2.33v-2.32h1.6Zm7.77-14.23H10.1V197.4h1.6Zm0-4.49H10.1v-2.33h1.6Zm15.42,38.92h-1.6v-2.33h1.6Zm3.75-9h-1.6v-2.32h1.6Zm0-4.49h-1.6v-2.32h1.6Zm3.75-13.46H33V204.9h1.61Zm3.75,9H36.76v-2.32h1.61Zm0-4.48H36.76v-2.33h1.61Zm0-4.49H36.76V204.9h1.61Zm4.28,25.5H42V219.94h.7Zm2,0h-.7V219.94h.7Zm1.95,0h-.7V219.94h.7Zm28.66-14.36H69.07v-.78h6.14ZM78.68,229h-1v-2.33h1Zm0-4.49h-1v-2.33h1Zm19.17,27.85H96.24v-.23h1.61Zm0-2.4H96.24v-2.32h1.61Zm3.75-13.46H100v-2.33h1.61Zm3.74,9h-1.6v-2.32h1.6Zm0-4.48h-1.6v-2.33h1.6Zm0-4.49h-1.6v-2.33h1.6Zm4.28,15.86h-.69v-3.15h.69Zm2,0h-.7v-3.15h.7Zm2,0h-.7v-3.15h.7Zm28.66,0h-6.14V252h6.14Zm0-1.85h-6.14v-.78h6.14Zm42.46.91H179v-.71h5.67Zm0-1.91H179v-.71h5.67Zm0-1.91H179v-.71h5.67Zm0-1.91H179V245h5.67Zm27.58-11.27h-1.6v-2.33h1.6Zm3.09-28h-1.61v-2.32h1.61Zm0-4.49h-1.61v-2.32h1.61Zm10,29.15h-1.6v-2.32h1.6Zm.42-10.28h-5.67V220h5.67Zm0-1.91h-5.67v-.71h5.67Zm0-1.91h-5.67v-.71h5.67Zm0-1.91h-5.67v-.7h5.67Zm0-1.91h-5.67v-.7h5.67Zm11.7,38h-1.61v-2.32h1.61Zm0-4.49h-1.61v-2.32h1.61Zm0-9h-1.61v-2.33h1.61Zm4.72,13.46h-1.61v-2.32h1.61Zm0-4.49h-1.61v-2.32h1.61Zm0-22.44h-1.61v-2.32h1.61Zm3.74,13.47h-1.6v-2.33h1.6Zm0-9h-1.6V226.4h1.6Zm0-4.49h-1.6v-2.32h1.6Zm10.45,22.09h-1.46V244h1.46Zm4.72-13.46H259.5v-2.33h1.61Zm3.75,13.46h-1.61V244h1.61Zm0-9h-1.61V235h1.61Zm0-4.49h-1.61v-2.33h1.61Zm17.52,16.59h-1.61v-2.33h1.61Zm0-4.49h-1.61v-2.33h1.61Zm7.77-14.24h-1.6V228.4h1.6Zm0-4.48h-1.6v-2.33h1.6Zm18.72,6.49H307.8v-1.56h1.07Zm0-3H307.8v-1.56h1.07Zm3.22-21.47H311v-1.56h1.07Zm0-3H311v-1.56h1.07Zm5.55,31.46h-.47v-8.58h.47Zm1.31,0h-.47v-8.58H319Zm1.31,0h-.47v-8.58h.47Zm10-1.35h-1.08v-1.56h1.08Zm0-3h-1.08v-1.56h1.08Zm0-3h-1.08v-1.56h1.08Zm0-3h-1.08v-1.56h1.08Zm0-3h-1.08v-1.56h1.08Zm0-3h-1.08v-1.56h1.08Zm0-3h-1.08v-1.56h1.08Zm2.51,18.07H331.7v-1.56h1.07Zm0-3H331.7v-1.56h1.07Zm0-3H331.7v-1.56h1.07Zm0-3H331.7v-1.56h1.07Zm0-3H331.7v-1.56h1.07Zm0-3H331.7v-1.56h1.07Zm0-3H331.7v-1.56h1.07Zm11.7,18.52h-3.8v-.47h3.8Zm0-1.28h-3.8V234h3.8Zm0-1.28h-3.8v-.48h3.8Zm0-1.28h-3.8v-.48h3.8Zm0-1.28h-3.8v-.48h3.8Zm0-1.28h-3.8v-.48h3.8Zm0-1.28h-3.8v-.48h3.8Zm0-1.28h-3.8v-.48h3.8Zm0-1.28h-3.8v-.48h3.8Zm0-1.28h-3.8v-.48h3.8Zm0-1.28h-3.8v-.48h3.8Zm9.33,12.76h-1.08V234.2h1.08Zm0-3h-1.08v-1.56h1.08Zm6-18.15h-1.08V213h1.08Zm0-3h-1.08V210h1.08Zm0-3h-1.08V207h1.08Zm2.51,0h-1.07V207h1.07Zm2.52,12h-1.08v-1.56h1.08Zm0-3h-1.08v-1.56h1.08Zm2.51,19.2H366.3v-1.56h1.07Zm0-3H366.3v-1.56h1.07Zm0-7.14H366.3v-1.56h1.07Zm0-15.06H366.3V210h1.07Zm0-3H366.3V207h1.07Zm10,23.91H376.3v-1.56h1.07Zm0-3H376.3v-1.56h1.07Zm2.45-19.34h-1.08v-1.56h1.08Zm0-6h-1.08v-1.56h1.08Zm0-3h-1.08v-1.56h1.08Zm2.51,18.07h-1.07v-1.56h1.07Zm0-3h-1.07v-1.55h1.07Zm0-15h-1.07v-1.56h1.07Zm5,18.07h-1.07v-1.56h1.07Zm0-3h-1.07v-1.55h1.07Zm0-6h-1.07v-1.56h1.07Zm0-6h-1.07v-1.56h1.07Zm0-3h-1.07v-1.56h1.07Zm6.43,25.42h-4.12V226h4.12Zm0-1.51h-4.12v-.53h4.12Zm0-1.52h-4.12V223h4.12Zm42.64,3h-4.12V226h4.12Zm0-1.51h-4.12v-.53h4.12Zm0-1.52h-4.12V223h4.12Zm3.38-4.32h-1.07v-1.56h1.07Zm0-3h-1.07v-1.55h1.07Zm0-6h-1.07v-1.56h1.07Zm0-6h-1.07v-1.56h1.07Zm0-3h-1.07v-1.56h1.07Zm5,18.07h-1.08v-1.56h1.08Zm0-3h-1.08v-1.55h1.08Zm0-15h-1.08v-1.56h1.08Zm2.51,9h-1.07v-1.56h1.07Zm0-6h-1.07v-1.56h1.07Zm0-3h-1.07v-1.56h1.07Zm2.45,31.38h-1.08v-1.56h1.08Zm0-3h-1.08v-1.56h1.08Zm10,7.33h-1.07v-1.56h1.07Zm0-3h-1.07v-1.56h1.07Zm0-7.14h-1.07v-1.56h1.07Zm0-15.06h-1.07V210h1.07Zm0-3h-1.07V207h1.07Zm2.52,12h-1.08v-1.56h1.08Zm0-3h-1.08v-1.56h1.08Zm2.51-9h-1.08V207h1.08Zm2.52,6h-1.08V213h1.08Zm0-3h-1.08V210h1.08Zm0-3h-1.08V207h1.08Zm6,27.18H472.3V234.2h1.08Zm0-3H472.3v-1.56h1.08Zm12.05,3.05h-3.8v-.47h3.8Zm0-1.28h-3.8V234h3.8Zm0-1.28h-3.8v-.48h3.8Zm0-1.28h-3.8v-.48h3.8Zm0-1.28h-3.8v-.48h3.8Zm0-1.28h-3.8v-.48h3.8Zm0-1.28h-3.8v-.48h3.8Zm0-1.28h-3.8v-.48h3.8Zm0-1.28h-3.8v-.48h3.8Zm0-1.28h-3.8v-.48h3.8Zm0-1.28h-3.8v-.48h3.8Zm9,12.35h-1.07v-1.56h1.07Zm0-3h-1.07v-1.56h1.07Zm0-3h-1.07v-1.56h1.07Zm0-3h-1.07v-1.56h1.07Zm0-3h-1.07v-1.56h1.07Zm0-3h-1.07v-1.56h1.07Zm0-3h-1.07v-1.56h1.07Zm2.52,18.07h-1.08v-1.56h1.08Zm0-3h-1.08v-1.56h1.08Zm0-3h-1.08v-1.56h1.08Zm0-3h-1.08v-1.56h1.08Zm0-3h-1.08v-1.56h1.08Zm0-3h-1.08v-1.56h1.08Zm0-3h-1.08v-1.56h1.08Z"/><path class="cls-8" d="M386,109h1.85l0,1.3s-.1.36-.85.36a1.36,1.36,0,0,1-1-.31Z"/><rect class="cls-8" x="386.18" y="107.46" width="1.54" height="0.14"/><rect class="cls-8" x="386.18" y="107.7" width="1.54" height="0.14"/><path class="cls-8" d="M386.26,107.5h0l-1.7-2.48a.07.07,0,0,1,0-.06.06.06,0,0,1,.06,0l1.7,2.48a0,0,0,0,1,0,.06Z"/><path class="cls-8" d="M387.58,107.5h0a.07.07,0,0,1,0-.06l1.55-2.47a0,0,0,0,1,.06,0,0,0,0,0,1,0,.06l-1.55,2.47S387.59,107.5,387.58,107.5Z"/><path class="cls-8" d="M387.24,107.5h0s0,0,0,0l.34-2.78s0,0,0,0,0,0,0,0l-.34,2.78A0,0,0,0,1,387.24,107.5Z"/><path class="cls-8" d="M386.75,107.5s0,0,0,0l-.43-2.74a.07.07,0,0,1,0,0,0,0,0,0,1,0,0l.43,2.74a0,0,0,0,1,0,0Z"/><path class="cls-8" d="M386.53,107.5l0,0-1.23-2.61a.06.06,0,0,1,0-.06,0,0,0,0,1,.06,0l1.23,2.61a0,0,0,0,1,0,.06Z"/><path class="cls-8" d="M387.45,107.5h0a0,0,0,0,1,0,0l1.14-2.65a0,0,0,0,1,.07,0l-1.14,2.65A.05.05,0,0,1,387.45,107.5Z"/><polygon class="cls-8" points="387.57 107.81 387.74 109.05 387.55 109.05 387.35 107.79 387.57 107.81"/><polygon class="cls-8" points="386.29 107.84 386.18 109.03 386.35 109.03 386.49 107.84 386.29 107.84"/><path class="cls-8" d="M387.91,110.25l0-1.3h-.54s.53,1.48-.37,1.66h.08C387.81,110.61,387.91,110.25,387.91,110.25Z"/><path class="cls-9" d="M388.2,82.2a2.2,2.2,0,0,0-2.52,0s-2-.59-2.94.29a4.68,4.68,0,0,0-3.05,1,8.21,8.21,0,0,0-3.47,8.1c.93,5.32,6.56,11.29,6.56,11.29l1.77,2.16s3-.69,4.56,0c0,0,5.33-5.68,7.4-10A9.58,9.58,0,0,0,394.63,84a5.62,5.62,0,0,0-3.26-1.44A3.39,3.39,0,0,0,388.2,82.2Z"/><path class="cls-10" d="M378.92,97.85h16a23.51,23.51,0,0,0,1.63-2.78l.31-.7H377.06A23.63,23.63,0,0,0,378.92,97.85Z"/><path class="cls-11" d="M379.47,98.7H394.3l.3-.43H379.19C379.28,98.42,379.38,98.56,379.47,98.7Z"/><path class="cls-11" d="M397.14,93.42H376.7c.05.15.11.29.16.43H397C397.05,93.71,397.1,93.57,397.14,93.42Z"/><path class="cls-10" d="M391.37,82.53a3.39,3.39,0,0,0-3.17-.33,2.2,2.2,0,0,0-2.52,0s-2-.59-2.94.29a4.68,4.68,0,0,0-3.05,1,8.65,8.65,0,0,0-2.84,3.34c1.09-.5,2.62-.56,4.27,1.31,0,0,2.93-3.8,5.68,0,0,0,2.47-3.48,5.34,0,0,0,2.12-3,4.64-1a10,10,0,0,0-2.15-3.2A5.62,5.62,0,0,0,391.37,82.53Z"/><path class="cls-12" d="M384.37,82.4c-2-.17-3.9,1.49-5,3.06a10.24,10.24,0,0,0-1.65,3.26,3.52,3.52,0,0,0,.16,2.31,2.13,2.13,0,0,0,1.81,1.28,3.25,3.25,0,0,0,1.89-.84A12.19,12.19,0,0,0,386,86.26a4.27,4.27,0,0,0,.3-2.2,2.06,2.06,0,0,0-.62-1.19A2.3,2.3,0,0,0,384.37,82.4Z"/><path class="cls-13" d="M389.11,105.05s5.33-5.68,7.4-10A9.58,9.58,0,0,0,394.63,84a6.55,6.55,0,0,0-1.59-1c.91,3.73,2.72,15.63-9.67,20.68l1.18,1.44S387.54,104.36,389.11,105.05Z"/><path class="cls-8" d="M430.39,57.45a14,14,0,0,0-13-8.8A13.67,13.67,0,0,0,411.51,50,12.14,12.14,0,0,0,406,48.65a12.38,12.38,0,0,0-4.64.91,13.66,13.66,0,0,0-4.93-.91,14,14,0,0,0-12.95,8.78,12.1,12.1,0,0,0,2.73,22.94,17.15,17.15,0,0,0,15,8.95,16.9,16.9,0,0,0,7.61-1.81A11.68,11.68,0,0,0,428.89,86c.33,0,.65,0,1,0a14.32,14.32,0,0,0,.52-28.61Z"/><path class="cls-14" d="M433.77,60.32a14,14,0,0,0-13-8.8,13.7,13.7,0,0,0-5.92,1.34,12.23,12.23,0,0,0-5.56-1.34,12.1,12.1,0,0,0-4.63.92,13.76,13.76,0,0,0-4.94-.92,14,14,0,0,0-12.95,8.78,12.1,12.1,0,0,0,2.73,22.94,17.15,17.15,0,0,0,15,9,16.85,16.85,0,0,0,7.62-1.81,11.68,11.68,0,0,0,20.11-1.48c.33,0,.65,0,1,0a14.32,14.32,0,0,0,.51-28.62Z"/><circle class="cls-15" cx="84.17" cy="65.72" r="14.44"/><circle class="cls-16" cx="84.17" cy="65.72" r="11.4"/><path class="cls-8" d="M85.4,72.21a6.24,6.24,0,0,0-5.09-4.56,6,6,0,0,0-3,.31,9,9,0,0,0-14.71.92,3.47,3.47,0,0,0-.56-.11A6.23,6.23,0,0,0,55,74.13,6.3,6.3,0,0,0,55,76.3a9.38,9.38,0,0,0,4.77,16.17,9.09,9.09,0,0,0,3.38-.14,6.4,6.4,0,0,0,1.8.56,6.24,6.24,0,0,0,3.41-.48,7.56,7.56,0,0,0,4.06,2,7.64,7.64,0,0,0,8-4.3,9.08,9.08,0,0,0,12.39-7.33A9.3,9.3,0,0,0,85.4,72.21Z"/><path class="cls-14" d="M86.5,73.33a6.24,6.24,0,0,0-5.09-4.56,6,6,0,0,0-3,.31,9,9,0,0,0-14.7.92,5.05,5.05,0,0,0-.56-.12,6.26,6.26,0,0,0-7.06,5.37,6.56,6.56,0,0,0,.07,2.17,9.38,9.38,0,0,0,4.77,16.17,9.1,9.1,0,0,0,3.38-.14,6,6,0,0,0,1.8.55,6.1,6.1,0,0,0,3.4-.47,7.61,7.61,0,0,0,12.07-2.35,9,9,0,0,0,2,.55,9.17,9.17,0,0,0,10.36-7.88A9.3,9.3,0,0,0,86.5,73.33Z"/><path class="cls-8" d="M249.07,80.86l-3.74-2.28c-.58-.36-1.16-.72-1.75-1.07a.35.35,0,0,1-.19-.47.38.38,0,0,1,.47-.26l11,1.61a.71.71,0,0,0,.35,0c1.13-.47,2.27-.91,3.38-1.42a7.9,7.9,0,0,1,2.51-.66c.75-.08,1.5-.1,2.26-.11a2,2,0,0,1,.78.19.72.72,0,0,1,.35,1.12,5.26,5.26,0,0,1-1.25,1.45,8.63,8.63,0,0,1-2.48,1.55q-9.81,4-19.6,8.15a.76.76,0,0,1-.47,0c-1-.35-1.93-.71-2.89-1.09a.71.71,0,0,1-.31-.31c-.55-1.33-1.08-2.66-1.61-4a.48.48,0,0,1-.08-.18c0-.15,0-.38,0-.44a.52.52,0,0,1,.44,0c.36.18.7.41,1,.62l2.37,1.41a.45.45,0,0,0,.32,0L248.86,81Z"/></g></g></g></svg>