<?xml version="1.0" standalone="no"?>
<!DOCTYPE svg PUBLIC "-//W3C//DTD SVG 20010904//EN"
 "http://www.w3.org/TR/2001/REC-SVG-20010904/DTD/svg10.dtd">
<svg version="1.0" xmlns="http://www.w3.org/2000/svg"
 width="261.000000pt" height="261.000000pt" viewBox="0 0 261.000000 261.000000"
 preserveAspectRatio="xMidYMid meet">
<metadata>
Created by potrace 1.11, written by Peter Selinger 2001-2013
</metadata>
<g transform="translate(0.000000,261.000000) scale(0.100000,-0.100000)"
fill="#000000" stroke="none">
<path d="M1145 2595 c-49 -7 -100 -15 -112 -19 -12 -4 -32 -9 -45 -12 -13 -3
-27 -6 -33 -8 -5 -2 -23 -6 -40 -11 -32 -8 -138 -50 -170 -68 -11 -6 -33 -17
-50 -25 -146 -72 -368 -271 -464 -417 -204 -311 -271 -671 -191 -1020 89 -383
337 -700 687 -874 85 -43 232 -96 293 -106 19 -3 42 -8 50 -10 89 -24 327 -27
450 -4 117 22 198 43 253 67 23 11 58 25 77 32 19 8 71 35 116 61 315 186 540
499 619 865 23 106 28 343 10 454 -33 200 -127 428 -237 575 -123 165 -321
326 -500 408 -221 102 -477 142 -713 112z"/>
</g>
</svg>
